<svg id="Capa_1" enable-background="new 0 0 512 512" height="512" viewBox="0 0 512 512" width="512" xmlns="http://www.w3.org/2000/svg"><g><path d="m459.476 315.091-15.389 30.604c-18.946 37.678-56.422 62.51-98.504 65.27l-21.373 1.402c-7.825.513-15.196 3.853-20.741 9.398l-16.657 16.657-100.511-97.025 11.728-27.917c2.913-6.933 4.476-14.358 4.607-21.877l1.678-96.677 1.087-57.723c.243-12.879 10.752-23.192 23.633-23.192 13.054 0 23.637 10.583 23.637 23.637v88.909z" fill="#ffcebf"/><g><path d="m428.124 301.669-14.483 28.803c-18.946 37.678-56.422 62.51-98.504 65.27l-21.373 1.402c-7.825.513-15.196 3.853-20.741 9.398l-9.448 9.448 23.237 22.432 16.657-16.657c5.545-5.545 12.916-8.885 20.741-9.398l21.373-1.402c42.082-2.76 79.559-27.592 98.504-65.27l15.389-30.604z" fill="#ffb09e"/></g><g><g><path d="m433.317 352.159h-140.051c-22.42 0-40.595-18.175-40.595-40.595v-270.969c0-22.42 18.175-40.595 40.595-40.595h140.052c22.42 0 40.595 18.175 40.595 40.595v270.969c-.001 22.42-18.176 40.595-40.596 40.595z" fill="#3d6d93"/><path d="m433.317 0h-30.446c22.42 0 40.595 18.175 40.595 40.595v270.969c0 22.42-18.175 40.595-40.595 40.595h30.446c22.42 0 40.595-18.175 40.595-40.595v-270.969c0-22.42-18.175-40.595-40.595-40.595z" fill="#335e80"/><path d="m392.167 38.565c0 7.577-6.143 13.72-13.72 13.72h-30.311c-7.577 0-13.72-6.143-13.72-13.72 0-4.484-3.635-8.119-8.119-8.119h-27.957c-8.407 0-15.223 6.816-15.223 15.223v260.821c0 8.407 6.816 15.223 15.223 15.223h129.903c8.407 0 15.223-6.816 15.223-15.223v-260.821c0-8.407-6.816-15.223-15.223-15.223h-27.957c-4.484 0-8.119 3.635-8.119 8.119z" fill="#f9f7f8"/><g><path d="m428.243 321.713h-129.903c-8.407 0-15.223-6.816-15.223-15.223v-31.477c0-44.232 35.895-80.089 80.174-80.089 44.279 0 80.174 35.857 80.174 80.089v31.477c.001 8.407-6.815 15.223-15.222 15.223z" fill="#f58a97"/><path d="m363.291 194.924c-5.207 0-10.293.513-15.223 1.46 36.996 7.106 64.951 39.598 64.951 78.629v31.477c0 8.407-6.816 15.223-15.223 15.223h30.446c8.407 0 15.223-6.816 15.223-15.223v-31.477c.001-44.232-35.895-80.089-80.174-80.089z" fill="#f07281"/><g><path d="m363.314 206.032h-.046c-23.617 0-42.762-19.145-42.762-42.762v-20.244l4.356-32.168c0-13.845 6.974-16.436 20.819-16.436l33.968-1.644c13.845 0 22.189 7.386 22.189 21.231l4.238 29.017v20.244c0 23.617-19.145 42.762-42.762 42.762z" fill="#ffcebf"/><path d="m382.187 88.582-31.626-2.49c13.845 0 25.068 11.223 25.068 25.069v17.899 34.211c0 18.262-11.452 33.841-27.562 39.971 4.724 1.798 9.845 2.791 15.2 2.791h.046c23.617 0 42.762-19.145 42.762-42.762v-20.243l-3.075-31.649c.001-13.846-6.968-22.797-20.813-22.797z" fill="#ffb09e"/><path d="m381.008 86.092h-35.432c-13.845 0-25.068 11.223-25.068 25.069v31.866l36.256-11.932c13.37-4.4 28.025-2.381 39.704 5.471l9.609 6.461v-31.866c-.001-13.845-11.225-25.069-25.069-25.069z" fill="#e19974"/><g><path d="m381.008 86.092h-30.446c13.845 0 25.068 11.223 25.068 25.069v17.899c7.365.748 14.535 3.27 20.837 7.507l9.609 6.461v-31.866c0-13.846-11.224-25.07-25.068-25.07z" fill="#dc8758"/></g></g></g></g><circle cx="363.291" cy="26.143" fill="#335e80" r="7.611"/></g><g><path d="m490.778 162.641h-16.866v-47.507h16.866c13.119 0 21.222 10.635 21.222 23.754 0 13.118-8.103 23.753-21.222 23.753z" fill="#ffcebf"/><path d="m490.778 210.148h-16.866v-47.507h16.866c13.119 0 21.222 10.635 21.222 23.754 0 13.119-8.103 23.753-21.222 23.753z" fill="#ffb09e"/><path d="m490.778 257.656h-16.866v-47.507h16.866c13.119 0 21.222 10.635 21.222 23.754 0 13.118-8.103 23.753-21.222 23.753z" fill="#ffcebf"/><path d="m490.778 305.163h-16.866v-47.507h16.866c13.119 0 21.222 10.635 21.222 23.754 0 13.118-8.103 23.753-21.222 23.753z" fill="#ffb09e"/></g><g><path d="m242.986 504.388 49.259-49.259c5.945-5.945 5.945-15.584 0-21.529l-103.963-103.962c-5.945-5.945-15.584-5.945-21.529 0l-159.142 160.035-4.24 3.958c-2.15 2.007-3.371 4.816-3.371 7.757 0 5.861 4.751 10.612 10.612 10.612h211.943c7.503 0 14.756-2.702 20.431-7.612z" fill="#f58a97"/></g><path d="m292.245 433.601-12.542-12.542c-.692 1.303-1.584 2.527-2.681 3.624l-49.259 49.259c-5.675 4.91-12.927 7.612-20.431 7.612h-191.647l-8.074 8.119-4.24 3.958c-2.15 2.007-3.371 4.816-3.371 7.757 0 5.861 4.751 10.612 10.612 10.612h211.943c7.504 0 14.756-2.702 20.431-7.612l49.259-49.259c5.945-5.944 5.945-15.583 0-21.528z" fill="#f07281"/></g></svg>